# xmcd
#
# Track frame offsets:
#       150
#       11547
#       26314
#       41896
#       46089
#       79950
#       99731
#       120322
#       141339
#       155305
#       173267
#       194182
#       218736
#       236855
#       263398
#       291737
#
# Disc length: 4068 seconds
#
# Revision: 1
# Processed by: cddbd v1.5.1PL2 Copyright (c) Steve Scherf et al.
# Submitted via: MusiCat 1.1
#
DISCID=dc0fe210
DTITLE=André Christovam - Mandinga
DYEAR=1992
DGENRE=
TTITLE0=Sebo Nas Canelas
TTITLE1=Confortável
TTITLE2=Duvido (Mas Tô Tentando)
TTITLE3=Blind Dog
TTITLE4=Mandinga
TTITLE5=So Long, Boemia
TTITLE6=Genuíno Pedaço do Cristo
TTITLE7=Dados Chumbados
TTITLE8=Palhaço de Gesso
TTITLE9=Pára Com Isso
TTITLE10=Carne de Pescoço
TTITLE11=Sem Whisky, Sem My Baby
TTITLE12=Come Into My Kitchen (Robert Johnson)
TTITLE13=Love Changing Blues
TTITLE14=Blind Willie McTell
TTITLE15=Me and the Devil
EXTD=Eldorado\n\n
EXTT0=
EXTT1=
EXTT2=
EXTT3=
EXTT4=
EXTT5=
EXTT6=
EXTT7=
EXTT8=
EXTT9=
EXTT10=
EXTT11=
EXTT12=
EXTT13=
EXTT14=
EXTT15=
PLAYORDER=
